{"title":"Castle - S04E04 - 720p WEB-DL H.264 {$H@uN}","uid":6746308,"size":421379748,"categoryP":"video","categoryS":"hd___tv_shows","magnet":"?xt=urn:btih:fa102df26c3bf29865400a8322352f56fe3981bf&amp;dn=Castle+-+S04E04+-+720p+WEB-DL+H.264+%7B%24H%40uN%7D&amp;tr=udp%3A%2F%2Ftracker.openbittorrent.com%3A80&amp;tr=udp%3A%2F%2Fopen.demonii.com%3A1337&amp;tr=udp%3A%2F%2Ftracker.coppersurfer.tk%3A6969&amp;tr=udp%3A%2F%2Fexodus.desync.com%3A6969","seeders":0,"leechers":1,"uploader":"ShaunGP","files":2,"time":1318702522,"description":"&quot;WEB-DL means straight from iTunes where they release &quot;Bluray&quot; quality episodes.\n Such episodes are without any Logo and Caps.&quot;\n\nCastle - S04E04 - Kick The Ballistics - 720p WEB-DL H.264 {$H@uN}\n\nGeneral:\n\nComplete name                  : Castle - S04E04 - Kick The Ballistics - 720p WEB-DL H.264 {$H@uN}.mkv\nOriginal air date              : October 10 2011\nGenre                          : Sitcom\nLanguage                       : English\nEncoder                        : $H@uN\nFile format                    : Matroska\nFile size                      : 402 MiB\nDuration                       : 43mn 10s\nOverall bit rate               : 1 301 Kbps\n\n\nVideo:\n\nFormat                         : AVC\nDuration                       : 43mn 10s\nBit rate                       : 1 200 Kbps\nWidth                          : 1 280 pixels\nHeight                         : 720 pixels\nDisplay aspect ratio           : 16:9\nFrame rate mode                : Variable\nFrame rate                     : 23.976 fps\nColor space                    : YUV\nChroma subsampling             : 4:2:0\nBit depth                      : 8 bits\nScan type                      : Progressive\nBits/(Pixel*Frame)             : 0.054\nStream size                    : 364 MiB (91%)\nWriting library                : x264 core 112\nLaguage                        : English\nSubtitles                      : Seperate .srt file included\n\n\nAudio:\n\nFormat                         : AC-3\nMode extension                 : CM (complete main)\nCodec ID                       : A_AC3\nDuration                       : 43mn 10s\nBit rate mode                  : Constant\nBit rate                       : 96 Kbps\nChannel(s)                     : 2 channels\nChannel positions              : Front: L R\nSampling rate                  : 48.0 KHz\nBit depth                      : 16 bits\nCompression mode               : Lossy\nStream size                    : 29.7 MiB (7%)\nLanguage                       : English\n\nScreen Shots:\n &lt;a href=&quot;\nhttp://i1140.photobucket.com/albums/n566/ShaunGP/ScreenShots1/Castle-S04E04-KickTheBallistics-720pWEB-DLH264HuNmkv_snapshot_0007_20111015_214133.jpg&quot; rel=&quot;nofollow&quot; target=&quot;_NEW&quot;&gt;\nhttp://i1140.photobucket.com/albums/n566/ShaunGP/ScreenShots1/Castle-S04E04-KickTheBallistics-720pWEB-DLH264HuNmkv_snapshot_0007_20111015_214133.jpg&lt;/a&gt;\n &lt;a href=&quot;\nhttp://i1140.photobucket.com/albums/n566/ShaunGP/ScreenShots1/Castle-S04E04-KickTheBallistics-720pWEB-DLH264HuNmkv_snapshot_0514_20111015_214242.jpg&quot; rel=&quot;nofollow&quot; target=&quot;_NEW&quot;&gt;\nhttp://i1140.photobucket.com/albums/n566/ShaunGP/ScreenShots1/Castle-S04E04-KickTheBallistics-720pWEB-DLH264HuNmkv_snapshot_0514_20111015_214242.jpg&lt;/a&gt;\n &lt;a href=&quot;\nhttp://i1140.photobucket.com/albums/n566/ShaunGP/ScreenShots1/Castle-S04E04-KickTheBallistics-720pWEB-DLH264HuNmkv_snapshot_0656_20111015_214306.jpg&quot; rel=&quot;nofollow&quot; target=&quot;_NEW&quot;&gt;\nhttp://i1140.photobucket.com/albums/n566/ShaunGP/ScreenShots1/Castle-S04E04-KickTheBallistics-720pWEB-DLH264HuNmkv_snapshot_0656_20111015_214306.jpg&lt;/a&gt;\n\n\nEncoder's Notes:\n\nDo Provide Feedback.\nKeep in Mind, you are charged nothing for Downloading a TORRENT,\nso its your duty to SEED n keep the torrent alive for as long as possible.\nEnjoy..!!! Keep Seeding till 1:1 ratio...","torrent":{"xt":"urn:btih:fa102df26c3bf29865400a8322352f56fe3981bf","amp;dn":"Castle+-+S04E04+-+720p+WEB-DL+H.264+%7B%24H%40uN%7D","amp;tr":["udp%3A%2F%2Ftracker.openbittorrent.com%3A80","udp%3A%2F%2Fopen.demonii.com%3A1337","udp%3A%2F%2Ftracker.coppersurfer.tk%3A6969","udp%3A%2F%2Fexodus.desync.com%3A6969"],"infoHash":"fa102df26c3bf29865400a8322352f56fe3981bf","infoHashBuffer":{"type":"Buffer","data":[250,16,45,242,108,59,242,152,101,64,10,131,34,53,47,86,254,57,129,191]},"announce":[],"urlList":[]}}